<svg width="129" height="36" viewBox="0 0 129 36" fill="none" xmlns="http://www.w3.org/2000/svg">
<g clip-path="url(#clip0)">
<path d="M1 17.9002C1 10.6402 5.82 4.47023 12.43 2.45023L12.14 1.49023C5.12 3.64023 0 10.1902 0 17.9002C0 21.0202 0.85 23.9502 2.32 26.4702L3.19 25.9702C1.8 23.6002 1 20.8502 1 17.9002Z" fill="url(#paint0_linear)"/>
<path d="M31.15 25.98C28.35 30.81 23.14 34.07 17.16 34.07C12.91 34.07 9.03998 32.41 6.15998 29.71L5.47998 30.44C8.54998 33.3 12.65 35.07 17.17 35.07C23.51 35.07 29.05 31.6 32.02 26.48L31.15 25.98Z" fill="url(#paint1_linear)"/>
<path d="M33.33 17.9C33.33 19.15 33.17 20.36 32.9 21.53L33.87 21.75C34.16 20.51 34.32 19.22 34.32 17.9C34.32 8.42998 26.62 0.72998 17.15 0.72998V1.72998C26.08 1.73998 33.33 8.98998 33.33 17.9Z" fill="url(#paint2_linear)"/>
<path d="M12.24 3.9C13.3169 3.9 14.19 3.02696 14.19 1.95C14.19 0.873045 13.3169 0 12.24 0C11.163 0 10.29 0.873045 10.29 1.95C10.29 3.02696 11.163 3.9 12.24 3.9Z" fill="#99A3FF"/>
<path d="M5.74999 32.0602C6.82694 32.0602 7.69999 31.1871 7.69999 30.1102C7.69999 29.0332 6.82694 28.1602 5.74999 28.1602C4.67303 28.1602 3.79999 29.0332 3.79999 30.1102C3.79999 31.1871 4.67303 32.0602 5.74999 32.0602Z" fill="#99A3FF"/>
<path d="M33.38 23.6002C34.4569 23.6002 35.33 22.7271 35.33 21.6502C35.33 20.5732 34.4569 19.7002 33.38 19.7002C32.303 19.7002 31.43 20.5732 31.43 21.6502C31.43 22.7271 32.303 23.6002 33.38 23.6002Z" fill="#99A3FF"/>
<path d="M23.96 10.0998C24.3 9.96978 24.62 10.2998 24.5 10.6398C23.87 12.3198 22.57 15.9698 22.57 17.4898C22.57 19.0098 23.87 22.6598 24.5 24.3398C24.63 24.6798 24.3 24.9998 23.96 24.8798C22.28 24.2498 18.63 22.9498 17.11 22.9498C15.58 22.9498 11.94 24.2498 10.26 24.8798C9.92002 25.0098 9.60002 24.6798 9.72002 24.3398C10.35 22.6598 11.65 19.0098 11.65 17.4898C11.65 15.9598 10.35 12.3198 9.72002 10.6398C9.59002 10.2998 9.92002 9.97978 10.26 10.0998C11.94 10.7298 15.59 12.0298 17.11 12.0298C18.63 12.0298 22.28 10.7298 23.96 10.0998Z" fill="url(#paint3_linear)"/>
<path d="M16.68 7.41986C16.83 7.08986 17.29 7.08986 17.44 7.41986C18.18 9.04986 19.84 12.5499 20.92 13.6299C22 14.7099 25.5 16.3699 27.13 17.1099C27.46 17.2599 27.46 17.7199 27.13 17.8699C25.5 18.6099 22 20.2699 20.92 21.3499C19.84 22.4299 18.18 25.9299 17.44 27.5599C17.29 27.8899 16.83 27.8899 16.68 27.5599C15.94 25.9299 14.28 22.4299 13.2 21.3499C12.12 20.2699 8.61999 18.6099 6.98999 17.8699C6.65999 17.7199 6.65999 17.2599 6.98999 17.1099C8.61999 16.3699 12.12 14.7099 13.2 13.6299C14.28 12.5499 15.94 9.04986 16.68 7.41986Z" fill="#99A3FF"/>
<path d="M45.11 27.0901V8.5001C45.11 8.1401 45.4 7.8501 45.76 7.8501H51.94C55.88 7.8501 57.94 10.9601 57.94 14.0301C57.94 17.1001 55.88 20.2101 51.94 20.2101H46.68V27.0901H45.11ZM51.95 18.6601C55.01 18.6601 56.4 16.2701 56.4 14.0501C56.4 11.8201 55.01 9.4201 51.95 9.4201H46.69V18.6601H51.95Z" fill="#99A3FF"/>
<path d="M67.1 27.1701C63.83 27.1701 61.35 25.5201 60.2 22.6301C59.81 21.6301 59.62 20.5901 59.62 19.5301C59.62 18.4601 59.82 17.4201 60.2 16.4301C61.31 13.5901 63.86 11.8901 67.03 11.8901H67.18C70.34 11.8901 72.9 13.5901 74.03 16.4301C74.4 17.3801 74.59 18.4201 74.59 19.5301C74.59 20.6401 74.4 21.6801 74.03 22.6301C72.89 25.5201 70.39 27.1701 67.18 27.1701H67.1ZM67.11 26.1701L67.19 25.6701C69.73 25.6701 71.71 24.3501 72.62 22.0501C72.92 21.3101 73.08 20.4301 73.08 19.5201C73.08 18.6201 72.93 17.7701 72.62 16.9901C71.71 14.6601 69.76 13.3701 67.12 13.3701C64.48 13.3701 62.53 14.6501 61.62 16.9901C61.32 17.8301 61.16 18.6801 61.16 19.5201C61.16 20.3701 61.32 21.2501 61.62 22.0501C62.52 24.3401 64.5 25.6601 67.04 25.6601H67.12L67.11 26.1701Z" fill="#99A3FF"/>
<path d="M78.92 7.87012H77.4V27.0901H78.92V7.87012Z" fill="#99A3FF"/>
<path d="M89.23 27.1702C86.05 27.1702 83.5 25.4702 82.4 22.6302C81.63 20.7002 81.63 18.3902 82.4 16.4502C83.49 13.6102 86.04 11.9102 89.22 11.9102C91.77 11.9102 93.85 12.9302 95.13 14.7402V11.9902H96.63V27.0902H95.11V24.7102V24.2502C93.83 26.1102 91.75 27.1702 89.23 27.1702ZM89.23 13.4302C86.67 13.4302 84.7 14.7302 83.81 17.0002C83.2 18.6102 83.2 20.4702 83.81 22.0902C84.7 24.3502 86.67 25.6502 89.23 25.6502C91.79 25.6502 93.76 24.3502 94.65 22.0802C95.29 20.4702 95.29 18.6102 94.65 17.0002C93.76 14.7302 91.79 13.4302 89.23 13.4302Z" fill="#99A3FF"/>
<path d="M100.74 27.1399V11.9899H102.26V13.7299C103.26 12.5999 104.74 11.9399 106.43 11.9399C107.24 11.9399 108.05 12.0899 108.89 12.3899L109.22 12.5099V14.1399L108.54 13.8799C107.84 13.6099 107.13 13.4699 106.43 13.4699C104.03 13.4899 102.31 15.2299 102.26 17.6999V27.1599H100.74V27.1399Z" fill="#99A3FF"/>
<path d="M111.42 27.0899V11.9399H112.94V27.0899H111.42ZM112.18 10.4599C111.62 10.4599 111.16 9.99992 111.16 9.43992C111.16 8.87992 111.62 8.41992 112.18 8.41992C112.74 8.41992 113.2 8.87992 113.2 9.43992C113.2 9.99992 112.75 10.4599 112.18 10.4599Z" fill="#99A3FF"/>
<path d="M122.51 27.2201C121.68 27.2201 120.84 27.0901 120.11 26.8601C117.71 26.1601 116.27 24.4401 116.27 22.2701V21.7701H117.79V22.2701C117.79 24.3601 119.71 25.1601 120.54 25.4101C121.16 25.6001 121.86 25.7001 122.56 25.7001H122.77C123.35 25.7001 123.95 25.6101 124.52 25.4301C125.28 25.2101 127.03 24.5001 127.03 22.6801C127.03 20.7701 125.25 20.4101 122.33 20.0501C119.55 19.7001 116.5 19.3201 116.5 16.1901C116.5 14.2701 117.81 12.7601 119.99 12.1401C120.64 11.9401 121.42 11.8301 122.29 11.8301C123.05 11.8301 123.84 11.9401 124.58 12.1301C126.87 12.8101 128.23 14.3401 128.23 16.2301V16.7301H126.71V16.2301C126.71 14.5301 124.94 13.8301 124.18 13.6101C123.55 13.4301 122.91 13.3401 122.29 13.3401C121.61 13.3401 120.96 13.4201 120.42 13.5801C119.53 13.8401 118.04 14.5101 118.04 16.1801C118.04 17.8801 119.79 18.2101 122.47 18.5201C125.33 18.8701 128.54 19.2601 128.54 22.6701C128.54 24.6801 127.22 26.2201 124.92 26.9001C124.23 27.1001 123.48 27.2101 122.75 27.2101C122.77 27.2201 122.51 27.2201 122.51 27.2201Z" fill="#99A3FF"/>
</g>
<defs>
<linearGradient id="paint0_linear" x1="1.1042" y1="21.3991" x2="8.4931" y2="3.62143" gradientUnits="userSpaceOnUse">
<stop stop-color="#110D2A" stop-opacity="0"/>
<stop offset="0.1101" stop-color="#14112F" stop-opacity="0.1101"/>
<stop offset="0.248" stop-color="#1E1C3F" stop-opacity="0.248"/>
<stop offset="0.4008" stop-color="#2F2E58" stop-opacity="0.4008"/>
<stop offset="0.5645" stop-color="#45477C" stop-opacity="0.5645"/>
<stop offset="0.7368" stop-color="#6367AA" stop-opacity="0.7368"/>
<stop offset="0.9136" stop-color="#868EE1" stop-opacity="0.9136"/>
<stop offset="1" stop-color="#99A3FF"/>
</linearGradient>
<linearGradient id="paint1_linear" x1="37.1362" y1="25.3735" x2="10.7658" y2="33.0031" gradientUnits="userSpaceOnUse">
<stop stop-color="#110D2A" stop-opacity="0"/>
<stop offset="0.1101" stop-color="#14112F" stop-opacity="0.1101"/>
<stop offset="0.248" stop-color="#1E1C3F" stop-opacity="0.248"/>
<stop offset="0.4008" stop-color="#2F2E58" stop-opacity="0.4008"/>
<stop offset="0.5645" stop-color="#45477C" stop-opacity="0.5645"/>
<stop offset="0.7368" stop-color="#6367AA" stop-opacity="0.7368"/>
<stop offset="0.9136" stop-color="#868EE1" stop-opacity="0.9136"/>
<stop offset="1" stop-color="#99A3FF"/>
</linearGradient>
<linearGradient id="paint2_linear" x1="22.0027" y1="1.76548" x2="32.8916" y2="17.321" gradientUnits="userSpaceOnUse">
<stop stop-color="#110D2A" stop-opacity="0"/>
<stop offset="0.1101" stop-color="#14112F" stop-opacity="0.1101"/>
<stop offset="0.248" stop-color="#1E1C3F" stop-opacity="0.248"/>
<stop offset="0.4008" stop-color="#2F2E58" stop-opacity="0.4008"/>
<stop offset="0.5645" stop-color="#45477C" stop-opacity="0.5645"/>
<stop offset="0.7368" stop-color="#6367AA" stop-opacity="0.7368"/>
<stop offset="0.9136" stop-color="#868EE1" stop-opacity="0.9136"/>
<stop offset="1" stop-color="#99A3FF"/>
</linearGradient>
<linearGradient id="paint3_linear" x1="-7.16308" y1="17.4882" x2="35.8994" y2="17.4882" gradientUnits="userSpaceOnUse">
<stop stop-color="#110D2A" stop-opacity="0"/>
<stop offset="0.1101" stop-color="#14112F" stop-opacity="0.1101"/>
<stop offset="0.248" stop-color="#1E1C3F" stop-opacity="0.248"/>
<stop offset="0.4008" stop-color="#2F2E58" stop-opacity="0.4008"/>
<stop offset="0.5645" stop-color="#45477C" stop-opacity="0.5645"/>
<stop offset="0.7368" stop-color="#6367AA" stop-opacity="0.7368"/>
<stop offset="0.9136" stop-color="#868EE1" stop-opacity="0.9136"/>
<stop offset="1" stop-color="#99A3FF"/>
</linearGradient>
<clipPath id="clip0">
<rect width="128.55" height="35.07" fill="white"/>
</clipPath>
</defs>
</svg>
